<?xml version="1.0" encoding="UTF-8" standalone="no"?>
<!-- Created with Inkscape (http://www.inkscape.org/) -->

<svg
   xmlns:dc="http://purl.org/dc/elements/1.1/"
   xmlns:cc="http://creativecommons.org/ns#"
   xmlns:rdf="http://www.w3.org/1999/02/22-rdf-syntax-ns#"
   xmlns:svg="http://www.w3.org/2000/svg"
   xmlns="http://www.w3.org/2000/svg"
   xmlns:sodipodi="http://sodipodi.sourceforge.net/DTD/sodipodi-0.dtd"
   xmlns:inkscape="http://www.inkscape.org/namespaces/inkscape"
   width="1000"
   height="265.92798"
   viewBox="0 0 100 26.592799"
   version="1.1"
   id="svg8"
   inkscape:version="0.92.3 (2405546, 2018-03-11)"
   sodipodi:docname="A.svg">
  <defs
     id="defs2" />
  <sodipodi:namedview
     id="base"
     pagecolor="#ffffff"
     bordercolor="#666666"
     borderopacity="1.0"
     inkscape:pageopacity="0.0"
     inkscape:pageshadow="2"
     inkscape:zoom="0.30656934"
     inkscape:cx="144.40001"
     inkscape:cy="38.400003"
     inkscape:document-units="px"
     inkscape:current-layer="layer1"
     showgrid="false"
     units="px"
     fit-margin-top="0"
     fit-margin-left="0"
     fit-margin-right="0"
     fit-margin-bottom="0" />
  <metadata
     id="metadata5">
    <rdf:RDF>
      <cc:Work
         rdf:about="">
        <dc:format>image/svg+xml</dc:format>
        <dc:type
           rdf:resource="http://purl.org/dc/dcmitype/StillImage" />
        <dc:title></dc:title>
      </cc:Work>
    </rdf:RDF>
  </metadata>
  <g
     inkscape:label="Layer 1"
     inkscape:groupmode="layer"
     id="layer1"
     transform="translate(-25.56,-33.49917)">
    <path
       inkscape:connector-curvature="0"
       style="fill:#bba880;stroke-width:0.3462604"
       d="m 125.56,46.795568 c 0,-7.132964 -5.78255,-12.915512 -12.91551,-12.915512 v 0 h -10.04155 v 25.831025 h 10.28393 v 0 C 119.91596,59.53795 125.56,53.824654 125.56,46.795568 Z m -12.91551,9.452909 v 0 h -6.57895 V 37.34266 h 6.57895 c 5.19391,0 9.45291,4.224376 9.45291,9.452908 0,5.193906 -4.259,9.452909 -9.45291,9.452909 z m -12.15374,3.462604 H 82.381329 V 33.880056 h 3.462604 V 56.248477 H 100.49075 Z M 54.057233,45.064266 c 0.831025,-6.509695 6.405814,-11.565096 13.157891,-11.565096 6.752078,0 12.32687,5.055401 13.157895,11.565096 h -3.49723 c -0.831025,-4.605263 -4.847645,-8.102493 -9.660665,-8.102493 -4.813019,0 -8.829636,3.49723 -9.660661,8.102493 z m 26.350412,3.462604 c -0.865651,6.509695 -6.405817,11.565097 -13.157895,11.565097 -6.752077,0 -12.326866,-5.055402 -13.192517,-11.565097 h 3.49723 c 0.831025,4.605263 4.847642,8.102493 9.660661,8.102493 4.81302,0 8.864266,-3.49723 9.660665,-8.102493 z m -19.529086,-0.380886 0.450139,-0.900277 c 0.380886,0.311634 0.796399,0.415512 1.281163,0.415512 0.311634,0 0.484765,-0.03463 0.484765,-0.17313 0,-0.103878 -0.103878,-0.138504 -0.692521,-0.207756 -0.761773,-0.138504 -1.454294,-0.242382 -1.454294,-1.038781 0,-0.796399 0.657895,-1.211912 1.558172,-1.211912 0.831025,0 1.350415,0.346261 1.523546,0.796399 l -0.865651,0.415513 C 63.06,45.999169 62.782991,45.929917 62.471357,45.929917 c -0.380886,0 -0.450139,0.103878 -0.450139,0.207757 0,0.103878 0.103879,0.138504 0.657895,0.207756 0.761773,0.103878 1.454294,0.277008 1.454294,1.108033 0,0.796399 -0.692521,1.177285 -1.66205,1.177285 -0.623269,-0.03463 -1.142659,-0.17313 -1.592798,-0.484764 z m 7.375346,0.34626 v 0.03463 H 67.07662 L 66.90349,48.076732 H 65.5877 l -0.17313,0.450138 h -1.177285 v -0.03463 l 1.419667,-3.427978 h 1.211912 z m -1.662049,-1.315789 -0.346261,-0.969529 -0.34626,0.969529 z m 4.432132,-1.108034 H 69.985207 V 48.52687 H 68.9118 v -2.458449 h -1.038781 v -1.004155 h 3.150969 z m -0.311634,1.939059 c 0,-0.346261 0.277008,-0.588643 0.623269,-0.588643 0.34626,0 0.623268,0.277008 0.623268,0.588643 0,0.34626 -0.277008,0.588642 -0.623268,0.588642 -0.346261,0 -0.623269,-0.242382 -0.623269,-0.588642 z m 2.977839,-2.943214 v 3.462604 h -1.073407 v -2.458449 h -0.657895 v -1.004155 h 0.831025 z m -21.64127,0 c 0.06925,0.554017 0.103878,1.14266 0.103878,1.731302 0,7.34072 -5.955679,13.296399 -13.296399,13.296399 -7.340723,0 -13.296402,-5.955679 -13.296402,-13.296399 0,-7.34072 5.955679,-13.296398 13.296402,-13.296398 5.50554,0 10.214682,3.324099 12.222992,8.102492 h -3.878117 c -1.731301,-2.770083 -4.813019,-4.639889 -8.344875,-4.639889 -5.436288,0 -9.833798,4.397507 -9.833798,9.833795 0,5.436288 4.39751,9.833795 9.833798,9.833795 4.847646,0 8.864266,-3.49723 9.660665,-8.102493 h -6.267313 v -3.462604 z"
       id="path2" />
  </g>
</svg>
