<?xml version="1.0" encoding="UTF-8" standalone="no"?>
<svg
   xmlns:dc="http://purl.org/dc/elements/1.1/"
   xmlns:cc="http://creativecommons.org/ns#"
   xmlns:rdf="http://www.w3.org/1999/02/22-rdf-syntax-ns#"
   xmlns:svg="http://www.w3.org/2000/svg"
   xmlns="http://www.w3.org/2000/svg"
   xmlns:sodipodi="http://sodipodi.sourceforge.net/DTD/sodipodi-0.dtd"
   xmlns:inkscape="http://www.inkscape.org/namespaces/inkscape"
   inkscape:version="1.0 (4035a4fb49, 2020-05-01)"
   sodipodi:docname="Seven_One_Media.svg"
   xml:space="preserve"
   style="enable-background:new 0 0 178 40;"
   viewBox="0 0 178 40"
   y="0px"
   x="0px"
   id="Ebene_1"
   version="1.1"><metadata
   id="metadata47"><rdf:RDF><cc:Work
       rdf:about=""><dc:format>image/svg+xml</dc:format><dc:type
         rdf:resource="http://purl.org/dc/dcmitype/StillImage" /></cc:Work></rdf:RDF></metadata><defs
   id="defs45" /><sodipodi:namedview
   inkscape:current-layer="Ebene_1"
   inkscape:window-maximized="1"
   inkscape:window-y="-8"
   inkscape:window-x="-8"
   inkscape:cy="83.946681"
   inkscape:cx="121.30213"
   inkscape:zoom="0.74929775"
   showgrid="false"
   id="namedview43"
   inkscape:window-height="715"
   inkscape:window-width="1366"
   inkscape:pageshadow="2"
   inkscape:pageopacity="0"
   guidetolerance="10"
   gridtolerance="10"
   objecttolerance="10"
   borderopacity="1"
   bordercolor="#666666"
   pagecolor="#ffffff" />
<style
   id="style2"
   type="text/css">
	.st0{fill:#FFFFFF;}
</style>
<g
   style="fill:#ff0230;fill-opacity:1"
   id="g40">
	<circle
   style="fill:#ff0230;fill-opacity:1"
   id="circle4"
   r="4.7"
   cy="35.1"
   cx="26.8"
   class="st0" />
	<polygon
   style="fill:#ff0230;fill-opacity:1"
   id="polygon6"
   points="36.8,39.8 46.2,39.8 46.2,0.3 36.8,9.7  "
   class="st0" />
	<path
   style="fill:#ff0230;fill-opacity:1"
   id="path8"
   d="M36.8,9.3c0-4.9-3.4-9-8.3-9H0v9.4h23.3L0,33.2l6.7,6.6L36.8,9.7L36.8,9.3z"
   class="st0" />
	<path
   style="fill:#ff0230;fill-opacity:1"
   id="path10"
   d="M59.9,9.6c-1.3,0-2.8-0.5-4.1-1.6l-1.2,2.4c1.5,1.1,3.4,1.7,5.3,1.7c2.8,0,4.8-1.4,4.8-3.8   c0-4.4-6.6-2.6-6.6-4.7c0-0.6,0.7-0.9,1.8-0.9c1.1,0,2.4,0.3,3.6,1.2l1.2-2.4c-1.2-0.8-3-1.3-4.6-1.3c-2.9,0-5,1.3-5,3.7   c0,4.5,6.6,2.7,6.6,4.7C61.7,9.2,61,9.6,59.9,9.6z"
   class="st0" />
	<path
   style="fill:#ff0230;fill-opacity:1"
   id="path12"
   d="M72.2,12c2.1,0,3.8-0.8,4.8-2l-1.9-1.9c-0.6,0.8-1.5,1.3-2.8,1.3c-1.6,0-2.8-0.9-3.2-2.3h8.4   c0.7-4.1-1.7-7-5.5-7c-3.5,0-6,2.5-6,6C66,9.6,68.6,12,72.2,12z M72,2.5c1.5,0,2.5,0.9,2.7,2.5H69C69.3,3.5,70.4,2.5,72,2.5z"
   class="st0" />
	<polygon
   style="fill:#ff0230;fill-opacity:1"
   id="polygon14"
   points="83.8,12.1 90,0.3 86.7,0.3 83.7,6.2 80.8,0.3 77.5,0.3 83.7,12.1  "
   class="st0" />
	<path
   style="fill:#ff0230;fill-opacity:1"
   id="path16"
   d="M96.1,12c2.1,0,3.8-0.8,4.8-2l-1.9-1.9c-0.6,0.8-1.5,1.3-2.8,1.3c-1.6,0-2.8-0.9-3.2-2.3h8.4   c0.7-4.1-1.7-7-5.5-7c-3.5,0-6,2.5-6,6C89.9,9.6,92.5,12,96.1,12z M95.8,2.5c1.5,0,2.5,0.9,2.7,2.5h-5.7   C93.2,3.5,94.2,2.5,95.8,2.5z"
   class="st0" />
	<path
   style="fill:#ff0230;fill-opacity:1"
   id="path18"
   d="M108.7,0.3h-5.3v11.5h2.8v-9h2.6c1.7,0,2.5,0.8,2.5,2.5v6.4h2.8V5.5C114,2,112.3,0.3,108.7,0.3z"
   class="st0" />
	<path
   style="fill:#ff0230;fill-opacity:1"
   id="path20"
   d="M117.8,12c1,0,1.7-0.7,1.7-1.6s-0.7-1.7-1.7-1.7c-0.9,0-1.7,0.7-1.7,1.7S116.8,12,117.8,12z"
   class="st0" />
	<path
   style="fill:#ff0230;fill-opacity:1"
   id="path22"
   d="M126.6,12c3.6,0,6.2-2.4,6.2-5.9c0-3.5-2.6-6-6.2-6c-3.6,0-6.1,2.5-6.1,6C120.5,9.6,123.1,12,126.6,12z    M126.7,2.8c1.9,0,3.3,1.3,3.3,3.3s-1.4,3.3-3.3,3.3c-1.9,0-3.2-1.3-3.2-3.3S124.8,2.8,126.7,2.8z"
   class="st0" />
	<polygon
   style="fill:#ff0230;fill-opacity:1"
   id="polygon24"
   points="142.7,6.4 134.7,0 134.7,0 134.7,11.9 137.5,11.9 137.5,5.7 145.4,12.2 145.4,12.2 145.4,0.3    142.7,0.3  "
   class="st0" />
	<path
   style="fill:#ff0230;fill-opacity:1"
   id="path26"
   d="M153.6,12c2.1,0,3.8-0.8,4.8-2l-1.9-1.9c-0.6,0.8-1.5,1.3-2.8,1.3c-1.6,0-2.8-0.9-3.2-2.3h8.4   c0.7-4.1-1.7-7-5.5-7c-3.5,0-6,2.5-6,6C147.4,9.6,150,12,153.6,12z M153.3,2.5c1.5,0,2.5,0.9,2.7,2.5h-5.7   C150.7,3.5,151.7,2.5,153.3,2.5z"
   class="st0" />
	<g
   style="fill:#ff0230;fill-opacity:1"
   id="g38">
		<path
   style="fill:#ff0230;fill-opacity:1"
   id="path28"
   d="M82,21.1c-0.9,0-1.7,0.5-2.2,1.2l-9.2,15.6c-0.1,0.2-0.4,0.3-0.6,0.3c-0.2,0-0.4-0.1-0.6-0.3l-9.2-15.6    c-0.5-0.8-1.3-1.2-2.2-1.2c-1.4,0-2.5,1.1-2.5,2.5v16.2h1.8V23.6c0-0.4,0.3-0.7,0.7-0.7c0.3,0,0.5,0.2,0.6,0.3l9.2,15.6    c0.5,0.8,1.3,1.2,2.2,1.2c0.9,0,1.7-0.5,2.2-1.2l9.2-15.6c0.1-0.2,0.3-0.3,0.6-0.3c0.4,0,0.7,0.3,0.7,0.7v16.2h1.8V23.6    C84.5,22.2,83.4,21.1,82,21.1z"
   class="st0" />
		<path
   style="fill:#ff0230;fill-opacity:1"
   id="path30"
   d="M89.1,25.6v10c0,2.4,1.9,4.3,4.3,4.3h18.5V38H91v-6.5h21v-1.8H91v-6.5h21v-1.8H93.4    C91.1,21.3,89.1,23.2,89.1,25.6z"
   class="st0" />
		<path
   style="fill:#ff0230;fill-opacity:1"
   id="path32"
   d="M134.7,21.3h-18.5v18.5h18.5c2.4,0,4.3-1.9,4.3-4.3v-10C139,23.2,137.1,21.3,134.7,21.3z M137.2,23.1V38    h-19.1V23.1H137.2z"
   class="st0" />
		<rect
   style="fill:#ff0230;fill-opacity:1"
   id="rect34"
   height="18.5"
   width="1.8"
   class="st0"
   y="21.3"
   x="143.7" />
		<path
   style="fill:#ff0230;fill-opacity:1"
   id="path36"
   d="M165.6,22.5c-0.6-0.9-1.6-1.4-2.7-1.4s-2.1,0.5-2.7,1.4l-11.9,17.3h2.2l3.5-5.1h17.7l3.5,5.1l0,0.1h2.2    L165.6,22.5z M170.5,32.9h-15.2l7.6-11.1L170.5,32.9z"
   class="st0" />
	</g>
</g>
</svg>
